<svg width="16" height="16" viewBox="0 0 16 16" fill="none" xmlns="http://www.w3.org/2000/svg">
<path d="M10.8096 8.60022L8.40958 14.0002C7.93219 14.0002 7.47435 13.8106 7.13679 13.473C6.79922 13.1354 6.60958 12.6776 6.60958 12.2002V9.80022H3.21359C3.03964 9.80219 2.86735 9.76632 2.70864 9.69509C2.54994 9.62386 2.40862 9.51898 2.29447 9.38771C2.18033 9.25644 2.09609 9.10193 2.04758 8.93487C1.99908 8.76781 1.98748 8.5922 2.01359 8.42022L2.84159 3.02022C2.88498 2.73407 3.03033 2.47325 3.25084 2.28581C3.47136 2.09837 3.75219 1.99695 4.04159 2.00022H10.8096M10.8096 8.60022V2.00022M10.8096 8.60022H12.4116C12.7511 8.60622 13.0811 8.48734 13.3388 8.26613C13.5965 8.04492 13.764 7.73678 13.8096 7.40022V3.20022C13.764 2.86365 13.5965 2.55552 13.3388 2.33431C13.0811 2.1131 12.7511 1.99421 12.4116 2.00022H10.8096" stroke="#C5C5D1" stroke-width="1.2" stroke-linecap="round" stroke-linejoin="round"/>
</svg>
