<svg width="16" height="16" viewBox="0 0 16 16" fill="none" xmlns="http://www.w3.org/2000/svg">
<path d="M5 7.4L7.39999 2C7.87738 2 8.33522 2.18964 8.67278 2.52721C9.01035 2.86477 9.19999 3.32261 9.19999 3.8V6.2H12.596C12.7699 6.19803 12.9422 6.2339 13.1009 6.30513C13.2596 6.37636 13.401 6.48124 13.5151 6.61251C13.6292 6.74378 13.7135 6.89829 13.762 7.06535C13.8105 7.23241 13.8221 7.40801 13.796 7.58L12.968 12.98C12.9246 13.2661 12.7792 13.527 12.5587 13.7144C12.3382 13.9018 12.0574 14.0033 11.768 14H5M5 7.4V14M5 7.4H3.2C2.88174 7.4 2.57651 7.52643 2.35147 7.75147C2.12643 7.97651 2 8.28174 2 8.6V12.8C2 13.1183 2.12643 13.4235 2.35147 13.6485C2.57651 13.8736 2.88174 14 3.2 14H5" stroke="#C5C5D1" stroke-width="1.2" stroke-linecap="round" stroke-linejoin="round"/>
</svg>
