<svg width="16" height="16" viewBox="0 0 16 16" fill="none" xmlns="http://www.w3.org/2000/svg">
<path d="M3 4.3999H4.2H13.8" stroke="white" stroke-width="1.2" stroke-linecap="round" stroke-linejoin="round"/>
<path d="M12.6 4.4V12.8C12.6 13.1183 12.4736 13.4235 12.2485 13.6485C12.0235 13.8736 11.7183 14 11.4 14H5.40001C5.08175 14 4.77653 13.8736 4.55148 13.6485C4.32644 13.4235 4.20001 13.1183 4.20001 12.8V4.4M6.00001 4.4V3.2C6.00001 2.88174 6.12644 2.57652 6.35148 2.35147C6.57653 2.12643 6.88175 2 7.20001 2H9.60001C9.91827 2 10.2235 2.12643 10.4485 2.35147C10.6736 2.57652 10.8 2.88174 10.8 3.2V4.4" stroke="#C5C5D1" stroke-width="1.2" stroke-linecap="round" stroke-linejoin="round"/>
<path d="M7.20001 7.3999V10.9999" stroke="#C5C5D1" stroke-width="1.2" stroke-linecap="round" stroke-linejoin="round"/>
<path d="M9.60004 7.3999V10.9999" stroke="#C5C5D1" stroke-width="1.2" stroke-linecap="round" stroke-linejoin="round"/>
</svg>
