<svg width="16" height="16" viewBox="0 0 16 16" fill="none" xmlns="http://www.w3.org/2000/svg">
<path d="M7.42424 3.29688H3.22423C2.90597 3.29688 2.60075 3.4233 2.3757 3.64835C2.15066 3.87339 2.02423 4.17862 2.02423 4.49688V12.8969C2.02423 13.2151 2.15066 13.5204 2.3757 13.7454C2.60075 13.9704 2.90597 14.0969 3.22423 14.0969H11.6242C11.9425 14.0969 12.2477 13.9704 12.4728 13.7454C12.6978 13.5204 12.8242 13.2151 12.8242 12.8969V8.69688" stroke="#C5C5D1" stroke-width="1.2" stroke-linecap="round" stroke-linejoin="round"/>
<path d="M11.9242 2.39696C12.1629 2.15827 12.4867 2.02417 12.8242 2.02417C13.1618 2.02417 13.4855 2.15827 13.7242 2.39696C13.9629 2.63566 14.097 2.9594 14.097 3.29696C14.097 3.63453 13.9629 3.95827 13.7242 4.19696L8.02424 9.89696L5.62424 10.497L6.22424 8.09696L11.9242 2.39696Z" stroke="#C5C5D1" stroke-width="1.2" stroke-linecap="round" stroke-linejoin="round"/>
</svg>
