<svg width="16" height="16" viewBox="0 0 16 16" fill="none" xmlns="http://www.w3.org/2000/svg">
<path d="M3.00006 4.3999H4.20006H13.8001" stroke="#C5C5D1" stroke-width="1.2" stroke-linecap="round" stroke-linejoin="round"/>
<path d="M12.6 4.4V12.8C12.6 13.1183 12.4736 13.4235 12.2486 13.6485C12.0235 13.8736 11.7183 14 11.4 14H5.40004C5.08178 14 4.77656 13.8736 4.55151 13.6485C4.32647 13.4235 4.20004 13.1183 4.20004 12.8V4.4M6.00004 4.4V3.2C6.00004 2.88174 6.12647 2.57652 6.35151 2.35147C6.57656 2.12643 6.88178 2 7.20004 2H9.60004C9.9183 2 10.2235 2.12643 10.4486 2.35147C10.6736 2.57652 10.8 2.88174 10.8 3.2V4.4" stroke="#C5C5D1" stroke-width="1.2" stroke-linecap="round" stroke-linejoin="round"/>
<path d="M7.20004 7.3999V10.9999" stroke="#C5C5D1" stroke-width="1.2" stroke-linecap="round" stroke-linejoin="round"/>
<path d="M9.60007 7.3999V10.9999" stroke="#C5C5D1" stroke-width="1.2" stroke-linecap="round" stroke-linejoin="round"/>
</svg>
